<mxfile host="app.diagrams.net" modified="2023-12-07T13:24:21.822Z" agent="Mozilla/5.0 (Windows NT 10.0; Win64; x64) AppleWebKit/537.36 (KHTML, like Gecko) Chrome/118.0.5993.2470 YaBrowser/23.11.0.2470 Yowser/2.5 Safari/537.36" etag="26je6HejDkkPi1U9gBzx" version="22.1.7" type="device">
  <diagram name="Page-1" id="e7e014a7-5840-1c2e-5031-d8a46d1fe8dd">
    <mxGraphModel dx="1500" dy="810" grid="1" gridSize="10" guides="1" tooltips="1" connect="1" arrows="1" fold="1" page="1" pageScale="1" pageWidth="1169" pageHeight="826" background="none" math="0" shadow="0">
      <root>
        <mxCell id="0" />
        <mxCell id="1" parent="0" />
        <mxCell id="FY5EJU9pZj6Y52FdRspI-41" value="Выбор языка программирования" style="rounded=1;whiteSpace=wrap;html=1;" vertex="1" parent="1">
          <mxGeometry x="490" y="130" width="120" height="60" as="geometry" />
        </mxCell>
        <mxCell id="FY5EJU9pZj6Y52FdRspI-42" value="Выбор темы" style="rounded=1;whiteSpace=wrap;html=1;" vertex="1" parent="1">
          <mxGeometry x="490" y="220" width="120" height="60" as="geometry" />
        </mxCell>
        <mxCell id="FY5EJU9pZj6Y52FdRspI-43" value="Изучение теории" style="rounded=1;whiteSpace=wrap;html=1;" vertex="1" parent="1">
          <mxGeometry x="490" y="320" width="120" height="60" as="geometry" />
        </mxCell>
        <mxCell id="FY5EJU9pZj6Y52FdRspI-44" value="Решение задач" style="rounded=1;whiteSpace=wrap;html=1;" vertex="1" parent="1">
          <mxGeometry x="490" y="413" width="120" height="60" as="geometry" />
        </mxCell>
        <mxCell id="FY5EJU9pZj6Y52FdRspI-45" value="Продолжение обучения" style="rounded=1;whiteSpace=wrap;html=1;" vertex="1" parent="1">
          <mxGeometry x="660" y="413" width="120" height="60" as="geometry" />
        </mxCell>
        <mxCell id="FY5EJU9pZj6Y52FdRspI-46" value="Завершение работы" style="rounded=1;whiteSpace=wrap;html=1;" vertex="1" parent="1">
          <mxGeometry x="490" y="530" width="120" height="60" as="geometry" />
        </mxCell>
        <mxCell id="FY5EJU9pZj6Y52FdRspI-47" value="" style="endArrow=classic;html=1;rounded=0;exitX=0.5;exitY=1;exitDx=0;exitDy=0;entryX=0.5;entryY=0;entryDx=0;entryDy=0;" edge="1" parent="1" source="FY5EJU9pZj6Y52FdRspI-41" target="FY5EJU9pZj6Y52FdRspI-42">
          <mxGeometry width="50" height="50" relative="1" as="geometry">
            <mxPoint x="720" y="270" as="sourcePoint" />
            <mxPoint x="770" y="220" as="targetPoint" />
          </mxGeometry>
        </mxCell>
        <mxCell id="FY5EJU9pZj6Y52FdRspI-48" value="" style="endArrow=classic;html=1;rounded=0;exitX=0.5;exitY=1;exitDx=0;exitDy=0;entryX=0.5;entryY=0;entryDx=0;entryDy=0;" edge="1" parent="1" source="FY5EJU9pZj6Y52FdRspI-42" target="FY5EJU9pZj6Y52FdRspI-43">
          <mxGeometry width="50" height="50" relative="1" as="geometry">
            <mxPoint x="730" y="330" as="sourcePoint" />
            <mxPoint x="780" y="280" as="targetPoint" />
          </mxGeometry>
        </mxCell>
        <mxCell id="FY5EJU9pZj6Y52FdRspI-49" value="" style="endArrow=classic;html=1;rounded=0;exitX=0.5;exitY=1;exitDx=0;exitDy=0;entryX=0.5;entryY=0;entryDx=0;entryDy=0;" edge="1" parent="1" source="FY5EJU9pZj6Y52FdRspI-43" target="FY5EJU9pZj6Y52FdRspI-44">
          <mxGeometry width="50" height="50" relative="1" as="geometry">
            <mxPoint x="760" y="400" as="sourcePoint" />
            <mxPoint x="810" y="350" as="targetPoint" />
          </mxGeometry>
        </mxCell>
        <mxCell id="FY5EJU9pZj6Y52FdRspI-50" value="" style="endArrow=classic;html=1;rounded=0;exitX=0.5;exitY=1;exitDx=0;exitDy=0;entryX=0.5;entryY=0;entryDx=0;entryDy=0;" edge="1" parent="1" source="FY5EJU9pZj6Y52FdRspI-44" target="FY5EJU9pZj6Y52FdRspI-46">
          <mxGeometry width="50" height="50" relative="1" as="geometry">
            <mxPoint x="370" y="440" as="sourcePoint" />
            <mxPoint x="420" y="390" as="targetPoint" />
          </mxGeometry>
        </mxCell>
        <mxCell id="FY5EJU9pZj6Y52FdRspI-52" value="" style="endArrow=classic;html=1;rounded=0;exitX=1;exitY=0.5;exitDx=0;exitDy=0;entryX=1;entryY=0.5;entryDx=0;entryDy=0;" edge="1" parent="1" source="FY5EJU9pZj6Y52FdRspI-45" target="FY5EJU9pZj6Y52FdRspI-42">
          <mxGeometry width="50" height="50" relative="1" as="geometry">
            <mxPoint x="810" y="550" as="sourcePoint" />
            <mxPoint x="860" y="500" as="targetPoint" />
            <Array as="points">
              <mxPoint x="810" y="443" />
              <mxPoint x="810" y="250" />
            </Array>
          </mxGeometry>
        </mxCell>
        <mxCell id="FY5EJU9pZj6Y52FdRspI-53" value="" style="ellipse;html=1;shape=endState;" vertex="1" parent="1">
          <mxGeometry x="535" y="640" width="30" height="30" as="geometry" />
        </mxCell>
        <mxCell id="FY5EJU9pZj6Y52FdRspI-54" value="" style="ellipse;html=1;shape=startState;" vertex="1" parent="1">
          <mxGeometry x="535" y="40" width="30" height="30" as="geometry" />
        </mxCell>
        <mxCell id="FY5EJU9pZj6Y52FdRspI-55" value="" style="edgeStyle=orthogonalEdgeStyle;html=1;verticalAlign=bottom;endArrow=open;endSize=8;rounded=0;entryX=0.5;entryY=0;entryDx=0;entryDy=0;" edge="1" source="FY5EJU9pZj6Y52FdRspI-54" parent="1" target="FY5EJU9pZj6Y52FdRspI-41">
          <mxGeometry relative="1" as="geometry">
            <mxPoint x="550" y="160" as="targetPoint" />
          </mxGeometry>
        </mxCell>
        <mxCell id="FY5EJU9pZj6Y52FdRspI-56" value="" style="endArrow=classic;html=1;rounded=0;exitX=0.5;exitY=1;exitDx=0;exitDy=0;entryX=0.5;entryY=0;entryDx=0;entryDy=0;" edge="1" parent="1" source="FY5EJU9pZj6Y52FdRspI-46" target="FY5EJU9pZj6Y52FdRspI-53">
          <mxGeometry width="50" height="50" relative="1" as="geometry">
            <mxPoint x="510" y="730" as="sourcePoint" />
            <mxPoint x="560" y="680" as="targetPoint" />
          </mxGeometry>
        </mxCell>
        <mxCell id="FY5EJU9pZj6Y52FdRspI-57" value="" style="endArrow=classic;html=1;rounded=0;exitX=1;exitY=0.5;exitDx=0;exitDy=0;entryX=0;entryY=0.5;entryDx=0;entryDy=0;" edge="1" parent="1" source="FY5EJU9pZj6Y52FdRspI-44" target="FY5EJU9pZj6Y52FdRspI-45">
          <mxGeometry width="50" height="50" relative="1" as="geometry">
            <mxPoint x="750" y="570" as="sourcePoint" />
            <mxPoint x="800" y="520" as="targetPoint" />
          </mxGeometry>
        </mxCell>
      </root>
    </mxGraphModel>
  </diagram>
</mxfile>
